mtllib model_14.mtl
o model_14
v -9.804534912109375 26.015649795532227 -111.5515365600586 
v 9.635650634765625 -8.290085792541504 -112.02542877197266 
v -9.804534912109375 27.737947463989258 -111.5515365600586 
v 9.635650634765625 32.66451644897461 -112.02542877197266 
v -11.906173706054688 27.737947463989258 -111.50006866455078 
v -29.332286834716797 27.697893142700195 -111.07120513916016 
v -29.332286834716797 25.975597381591797 -111.07120513916016 
v -11.906173706054688 26.015649795532227 -111.50006866455078 
v -50.085994720458984 27.697893142700195 -110.56514739990234 
v -31.2587890625 27.697893142700195 -111.02403259277344 
v -31.2587890625 25.975597381591797 -111.02403259277344 
v -50.085994720458984 26.015649795532227 -110.56514739990234 
v -52.100067138671875 26.015649795532227 -110.51583099365234 
v -74.25487518310547 25.75530242919922 -109.97332000732422 
v -76.88192749023438 25.75530242919922 -109.90898895263672 
v -169.61685180664062 -8.330140113830566 -107.6360092163086 
v -99.12429809570312 26.035676956176758 -109.3621826171875 
v -97.19779205322266 26.035676956176758 -109.41150665283203 
v -97.19779205322266 27.85810661315918 -109.41150665283203 
v -76.88192749023438 27.83807945251465 -109.90898895263672 
v -74.25487518310547 27.83807945251465 -109.97332000732422 
v -52.100067138671875 27.697893142700195 -110.51583099365234 
v -169.61685180664062 32.62446212768555 -107.6360092163086 
v -99.12429809570312 27.85810661315918 -109.3621826171875 
v -122.5926284790039 27.85810661315918 -108.7896499633789 
v -120.31584930419922 27.85810661315918 -108.84540557861328 
v -120.31584930419922 25.995624542236328 -108.84540557861328 
v -122.5926284790039 25.995624542236328 -108.7896499633789 
v -144.39715576171875 25.995624542236328 -108.25357055664062 
v -144.39715576171875 27.85810661315918 -108.25357055664062 
v -146.49879455566406 27.85810661315918 -108.20425415039062 
v -146.49879455566406 25.995624542236328 -108.20425415039062 
vn 0.026213347911834717 0 0.9996563792228699 
vn 0.026213347911834717 0 0.9996563792228699 
vn 0.026213347911834717 0 0.9996563792228699 
vn 0.026213347911834717 0 0.9996563792228699 
vn 0.026213347911834717 0 0.9996563792228699 
vn 0.026213347911834717 0 0.9996563792228699 
vn 0.026213347911834717 0 0.9996563792228699 
vn 0.026213347911834717 0 0.9996563792228699 
vn 0.026213347911834717 0 0.9996563792228699 
vn 0.026213347911834717 0 0.9996563792228699 
vn 0.026213347911834717 0 0.9996563792228699 
vn 0.026213347911834717 0 0.9996563792228699 
vn 0.026213347911834717 0 0.9996563792228699 
vn 0.026213347911834717 0 0.9996563792228699 
vn 0.026213347911834717 0 0.9996563792228699 
vn 0.026213347911834717 0 0.9996563792228699 
vn 0.026213347911834717 0 0.9996563792228699 
vn 0.026213347911834717 0 0.9996563792228699 
vn 0.026213347911834717 0 0.9996563792228699 
vn 0.026213347911834717 0 0.9996563792228699 
vn 0.026213347911834717 0 0.9996563792228699 
vn 0.026213347911834717 0 0.9996563792228699 
vn 0.026213347911834717 0 0.9996563792228699 
vn 0.026213347911834717 0 0.9996563792228699 
vn 0.026213347911834717 0 0.9996563792228699 
vn 0.026213347911834717 0 0.9996563792228699 
vn 0.026213347911834717 0 0.9996563792228699 
vn 0.026213347911834717 0 0.9996563792228699 
vn 0.026213347911834717 0 0.9996563792228699 
vn 0.026213347911834717 0 0.9996563792228699 
vn 0.026213347911834717 0 0.9996563792228699 
vn 0.026213347911834717 0 0.9996563792228699 
vt 0.10816731303930283 0.16237305104732513 
vt 0 0.9999982118606567 
vt 0.10816731303930283 0.12025372684001923 
vt 0 0 
vt 0.11988747119903564 0.12025372684001923 
vt 0.2174333781003952 0.12098623812198639 
vt 0.2174333781003952 0.1628613919019699 
vt 0.11988747119903564 0.16237305104732513 
vt 0.33304786682128906 0.120742067694664 
vt 0.22817686200141907 0.12098623812198639 
vt 0.22817686200141907 0.1628613919019699 
vt 0.33304786682128906 0.16225096583366394 
vt 0.3441576063632965 0.16225096583366394 
vt 0.46770763397216797 0.16798895597457886 
vt 0.48247992992401123 0.16798895597457886 
vt 0.9999982118606567 0.9999982118606567 
vt 0.6067624688148499 0.16139636933803558 
vt 0.59565269947052 0.16139636933803558 
vt 0.59565269947052 0.11659117788076401 
vt 0.48247992992401123 0.11720159649848938 
vt 0.46770763397216797 0.11720159649848938 
vt 0.3441576063632965 0.120742067694664 
vt 0.9999982118606567 0 
vt 0.6067624688148499 0.11659117788076401 
vt 0.7375155091285706 0.11646909266710281 
vt 0.7246965765953064 0.11646909266710281 
vt 0.7246965765953064 0.16225096583366394 
vt 0.7375155091285706 0.16225096583366394 
vt 0.8593563437461853 0.16212888062000275 
vt 0.8593563437461853 0.11622492223978043 
vt 0.8707101941108704 0.11622492223978043 
vt 0.8707101941108704 0.16212888062000275 
s on 
f 1/1/1 2/2/2 3/3/3 
f 2/2/2 4/4/4 3/3/3 
f 3/3/3 4/4/4 5/5/5 
f 4/4/4 6/6/6 5/5/5 
f 5/5/5 6/6/6 5/5/5 
f 6/6/6 7/7/7 5/5/5 
f 5/5/5 7/7/7 8/8/8 
f 7/7/7 2/2/2 8/8/8 
f 8/8/8 2/2/2 1/1/1 
f 2/2/2 1/1/1 1/1/1 
f 1/1/1 1/1/1 4/4/4 
f 1/1/1 4/4/4 4/4/4 
f 4/4/4 4/4/4 6/6/6 
f 4/4/4 9/9/9 6/6/6 
f 6/6/6 9/9/9 10/10/10 
f 9/9/9 9/9/9 10/10/10 
f 10/10/10 9/9/9 11/11/11 
f 9/9/9 12/12/12 11/11/11 
f 11/11/11 12/12/12 11/11/11 
f 12/12/12 13/13/13 11/11/11 
f 11/11/11 13/13/13 11/11/11 
f 13/13/13 14/14/14 11/11/11 
f 11/11/11 14/14/14 7/7/7 
f 14/14/14 14/14/14 7/7/7 
f 7/7/7 14/14/14 2/2/2 
f 14/14/14 15/15/15 2/2/2 
f 2/2/2 15/15/15 16/16/16 
f 15/15/15 15/15/15 16/16/16 
f 16/16/16 15/15/15 17/17/17 
f 15/15/15 15/15/15 17/17/17 
f 17/17/17 15/15/15 18/18/18 
f 15/15/15 15/15/15 18/18/18 
f 18/18/18 15/15/15 19/19/19 
f 15/15/15 20/20/20 19/19/19 
f 19/19/19 20/20/20 19/19/19 
f 20/20/20 21/21/21 19/19/19 
f 19/19/19 21/21/21 4/4/4 
f 21/21/21 21/21/21 4/4/4 
f 4/4/4 21/21/21 9/9/9 
f 21/21/21 21/21/21 9/9/9 
f 9/9/9 21/21/21 22/22/22 
f 21/21/21 14/14/14 22/22/22 
f 22/22/22 14/14/14 13/13/13 
f 14/14/14 13/13/13 13/13/13 
f 13/13/13 13/13/13 4/4/4 
f 13/13/13 4/4/4 4/4/4 
f 4/4/4 4/4/4 19/19/19 
f 4/4/4 23/23/23 19/19/19 
f 19/19/19 23/23/23 24/24/24 
f 23/23/23 25/25/25 24/24/24 
f 24/24/24 25/25/25 24/24/24 
f 25/25/25 26/26/26 24/24/24 
f 24/24/24 26/26/26 24/24/24 
f 26/26/26 27/27/27 24/24/24 
f 24/24/24 27/27/27 17/17/17 
f 27/27/27 27/27/27 17/17/17 
f 17/17/17 27/27/27 16/16/16 
f 27/27/27 28/28/28 16/16/16 
f 16/16/16 28/28/28 29/29/29 
f 28/28/28 28/28/28 29/29/29 
f 29/29/29 28/28/28 30/30/30 
f 28/28/28 25/25/25 30/30/30 
f 30/30/30 25/25/25 30/30/30 
f 25/25/25 23/23/23 30/30/30 
f 30/30/30 23/23/23 31/31/31 
f 23/23/23 16/16/16 31/31/31 
f 31/31/31 16/16/16 32/32/32 
f 16/16/16 29/29/29 32/32/32 

