mtllib model_13.mtl
o model_13
v -68.19766998291016 4.651836395263672 118.15090942382812 
v -82.14744567871094 4.651836395263672 118.69756317138672 
v -68.19766998291016 -8.348137855529785 118.15090942382812 
v -82.14744567871094 -8.348137855529785 118.69756317138672 
vn 0.03697416931390762 -1.4892741262428899e-8 0.9993157386779785 
vn 0.03697416931390762 -1.4892741262428899e-8 0.9993157386779785 
vn 0.03697416931390762 -1.4892741262428899e-8 0.9993157386779785 
vn 0.03697416931390762 -1.4892741262428899e-8 0.9993157386779785 
s on 
f 1//1 2//2 3//3 
f 2//2 4//4 3//3 

