mtllib model_15.mtl
o model_15
v 14.014225959777832 -8.324742317199707 66.534423828125 
v -165.71551513671875 -8.324738502502441 70.66928100585938 
v 14.014225959777832 -10.444321632385254 66.534423828125 
v -165.71551513671875 -10.444317817687988 70.66928100585938 
v 9.801373481750488 -8.324742317199707 -116.5853271484375 
v 14.014225959777832 -8.324742317199707 66.534423828125 
v 9.801373481750488 -10.444321632385254 -116.5853271484375 
v 14.014225959777832 -10.444321632385254 66.534423828125 
v -169.92837524414062 -8.324738502502441 -112.45046997070312 
v 9.801373481750488 -8.324742317199707 -116.5853271484375 
v -169.92837524414062 -10.444317817687988 -112.45046997070312 
v 9.801373481750488 -10.444321632385254 -116.5853271484375 
v -165.71551513671875 -8.324738502502441 70.66928100585938 
v -169.92837524414062 -8.324738502502441 -112.45046997070312 
v -165.71551513671875 -10.444317817687988 70.66928100585938 
v -169.92837524414062 -10.444317817687988 -112.45046997070312 
v 9.801373481750488 -8.324742317199707 -116.5853271484375 
v -169.92837524414062 -8.324738502502441 -112.45046997070312 
v 14.014225959777832 -8.324742317199707 66.534423828125 
v -165.71551513671875 -8.324738502502441 70.66928100585938 
v 14.014225959777832 -10.444321632385254 66.534423828125 
v -165.71551513671875 -10.444317817687988 70.66928100585938 
v 9.801373481750488 -10.444321632385254 -116.5853271484375 
v -169.92837524414062 -10.444317817687988 -112.45046997070312 
vn 0.022999921813607216 1.2647261752481956e-15 0.999735951423645 
vn 0.022999921813607216 1.2647261752481956e-15 0.999735951423645 
vn 0.022999921813607216 1.2647261752481956e-15 0.999735951423645 
vn 0.022999921813607216 1.2647261752481956e-15 0.999735951423645 
vn 0.9997838139533997 -2.107333507694875e-8 -0.02081574872136116 
vn 0.9997838139533997 -2.107333507694875e-8 -0.02081574872136116 
vn 0.9997838139533997 -2.107333507694875e-8 -0.02081574872136116 
vn 0.9997838139533997 -2.107333507694875e-8 -0.02081574872136116 
vn -0.022999921813607216 -1.264721834204341e-15 -0.999735951423645 
vn -0.022999921813607216 -1.264721834204341e-15 -0.999735951423645 
vn -0.022999921813607216 -1.264721834204341e-15 -0.999735951423645 
vn -0.022999921813607216 -1.264721834204341e-15 -0.999735951423645 
vn -0.9996833205223083 2.1073127243198542e-8 0.025183983147144318 
vn -0.9996833205223083 2.1073127243198542e-8 0.025183983147144318 
vn -0.9996833205223083 2.1073127243198542e-8 0.025183983147144318 
vn -0.9996833205223083 2.1073127243198542e-8 0.025183983147144318 
vn 0.00005026886356063187 0.999997615814209 0.0021841167472302914 
vn 0.00005026886356063187 0.999997615814209 0.0021841167472302914 
vn 0.00005026886356063187 0.999997615814209 0.0021841167472302914 
vn 0.00005026886356063187 0.999997615814209 0.0021841167472302914 
vn 0.000050226728490088135 -0.999997615814209 0.002184117678552866 
vn 0.000050226728490088135 -0.999997615814209 0.002184117678552866 
vn 0.000050226728490088135 -0.999997615814209 0.002184117678552866 
vn 0.000050226728490088135 -0.999997615814209 0.002184117678552866 
vt 1.0000005960464478 1.0000005960464478 
vt 0 1.0000005960464478 
vt 1.0000005960464478 0 
vt 0 0 
vt 1.0000005960464478 1.0000005960464478 
vt 0 1.0000005960464478 
vt 1.0000005960464478 0 
vt 0 0 
vt 1.0000005960464478 1.0000005960464478 
vt 0 1.0000005960464478 
vt 1.0000005960464478 0 
vt 0 0 
vt 1.0000005960464478 1.0000005960464478 
vt 0 1.0000005960464478 
vt 1.0000005960464478 0 
vt 0 0 
vt 1.0000005960464478 1.0000005960464478 
vt 0 1.0000005960464478 
vt 1.0000005960464478 0 
vt 0 0 
vt 1.0000005960464478 1.0000005960464478 
vt 0 1.0000005960464478 
vt 1.0000005960464478 0 
vt 0 0 
s on 
f 1/1/1 2/2/2 3/3/3 
f 2/2/2 4/4/4 3/3/3 
f 3/3/3 4/4/4 4/4/4 
f 4/4/4 5/5/5 4/4/4 
f 4/4/4 5/5/5 5/5/5 
f 5/5/5 6/6/6 5/5/5 
f 5/5/5 6/6/6 7/7/7 
f 6/6/6 8/8/8 7/7/7 
f 7/7/7 8/8/8 8/8/8 
f 8/8/8 9/9/9 8/8/8 
f 8/8/8 9/9/9 9/9/9 
f 9/9/9 10/10/10 9/9/9 
f 9/9/9 10/10/10 11/11/11 
f 10/10/10 12/12/12 11/11/11 
f 11/11/11 12/12/12 12/12/12 
f 12/12/12 13/13/13 12/12/12 
f 12/12/12 13/13/13 13/13/13 
f 13/13/13 14/14/14 13/13/13 
f 13/13/13 14/14/14 15/15/15 
f 14/14/14 16/16/16 15/15/15 
f 15/15/15 16/16/16 16/16/16 
f 16/16/16 17/17/17 16/16/16 
f 16/16/16 17/17/17 17/17/17 
f 17/17/17 18/18/18 17/17/17 
f 17/17/17 18/18/18 19/19/19 
f 18/18/18 20/20/20 19/19/19 
f 19/19/19 20/20/20 20/20/20 
f 20/20/20 21/21/21 20/20/20 
f 20/20/20 21/21/21 21/21/21 
f 21/21/21 22/22/22 21/21/21 
f 21/21/21 22/22/22 23/23/23 
f 22/22/22 24/24/24 23/23/23 

